<svg xmlns="http://www.w3.org/2000/svg" xmlns:xlink="http://www.w3.org/1999/xlink" width="2245" zoomAndPan="magnify" viewBox="0 0 1683.75 1190.250009" height="1587" preserveAspectRatio="xMidYMid meet" version="1.0"><defs><clipPath id="7b23927f8b"><path d="M 0.40625 261.445312 L 1682.667969 261.445312 L 1682.667969 928 L 0.40625 928 Z M 0.40625 261.445312 " clip-rule="nonzero"/></clipPath></defs><g clip-path="url(#7b23927f8b)"><path fill="#ffffff" d="M 1560.496094 594.773438 C 1560.496094 527.285156 1615.203125 472.5625 1682.707031 472.5625 L 1682.707031 450.554688 C 1669.644531 450.554688 1659.054688 439.96875 1659.054688 426.90625 C 1659.054688 413.84375 1669.644531 403.253906 1682.707031 403.253906 L 1682.707031 391.832031 C 1669.644531 391.832031 1659.054688 381.246094 1659.054688 368.183594 C 1659.054688 355.121094 1669.644531 344.535156 1682.707031 344.535156 L 1682.707031 333.933594 C 1669.644531 333.933594 1659.054688 323.34375 1659.054688 310.28125 C 1659.054688 297.222656 1669.644531 286.632812 1682.707031 286.632812 L 1682.707031 261.664062 L 1476.675781 261.664062 C 1476.6875 261.828125 1476.726562 261.984375 1476.726562 262.148438 L 1476.726562 274.46875 C 1476.726562 276.917969 1474.738281 278.902344 1472.292969 278.902344 C 1469.84375 278.902344 1467.855469 276.917969 1467.855469 274.46875 L 1467.855469 262.148438 C 1467.855469 261.984375 1467.882812 261.816406 1467.90625 261.664062 L 215.203125 261.664062 C 215.214844 261.828125 215.253906 261.984375 215.253906 262.148438 L 215.253906 274.46875 C 215.253906 276.917969 213.269531 278.902344 210.820312 278.902344 C 208.371094 278.902344 206.382812 276.917969 206.382812 274.46875 L 206.382812 262.148438 C 206.382812 261.984375 206.410156 261.816406 206.433594 261.664062 L 0.40625 261.664062 L 0.40625 286.621094 C 13.46875 286.621094 24.054688 297.207031 24.054688 310.269531 C 24.054688 323.332031 13.46875 333.933594 0.40625 333.933594 L 0.40625 344.535156 C 13.46875 344.535156 24.054688 355.121094 24.054688 368.183594 C 24.054688 381.246094 13.46875 391.832031 0.40625 391.832031 L 0.40625 403.253906 C 13.46875 403.253906 24.054688 413.84375 24.054688 426.90625 C 24.054688 439.96875 13.46875 450.554688 0.40625 450.554688 L 0.40625 472.5625 C 67.894531 472.5625 122.617188 527.273438 122.617188 594.773438 C 122.617188 662.261719 67.90625 716.984375 0.40625 716.984375 L 0.40625 738.996094 C 13.46875 738.996094 24.054688 749.582031 24.054688 762.644531 C 24.054688 775.707031 13.46875 786.292969 0.40625 786.292969 L 0.40625 796.894531 C 13.46875 796.894531 24.054688 807.484375 24.054688 820.546875 C 24.054688 833.605469 13.46875 844.195312 0.40625 844.195312 L 0.40625 855.617188 C 13.46875 855.617188 24.054688 866.203125 24.054688 879.265625 C 24.054688 892.328125 13.46875 902.917969 0.40625 902.917969 L 0.40625 927.875 L 206.433594 927.875 C 206.421875 927.707031 206.382812 927.554688 206.382812 927.386719 L 206.382812 915.066406 C 206.382812 912.621094 208.371094 910.632812 210.820312 910.632812 C 213.269531 910.632812 215.253906 912.621094 215.253906 915.066406 L 215.253906 927.386719 C 215.253906 927.554688 215.230469 927.71875 215.203125 927.875 L 1467.90625 927.875 C 1467.894531 927.707031 1467.855469 927.554688 1467.855469 927.386719 L 1467.855469 915.066406 C 1467.855469 912.621094 1469.84375 910.632812 1472.292969 910.632812 C 1474.738281 910.632812 1476.726562 912.621094 1476.726562 915.066406 L 1476.726562 927.386719 C 1476.726562 927.554688 1476.699219 927.71875 1476.675781 927.875 L 1682.707031 927.875 L 1682.707031 902.917969 C 1669.644531 902.917969 1659.054688 892.328125 1659.054688 879.265625 C 1659.054688 866.203125 1669.644531 855.617188 1682.707031 855.617188 L 1682.707031 844.195312 C 1669.644531 844.195312 1659.054688 833.605469 1659.054688 820.546875 C 1659.054688 807.484375 1669.644531 796.894531 1682.707031 796.894531 L 1682.707031 786.292969 C 1669.644531 786.292969 1659.054688 775.707031 1659.054688 762.644531 C 1659.054688 749.582031 1669.644531 738.996094 1682.707031 738.996094 L 1682.707031 716.972656 C 1615.203125 716.972656 1560.496094 662.261719 1560.496094 594.773438 Z M 215.253906 891.339844 C 215.253906 893.789062 213.269531 895.777344 210.820312 895.777344 C 208.371094 895.777344 206.382812 893.789062 206.382812 891.339844 L 206.382812 867.613281 C 206.382812 865.167969 208.371094 863.179688 210.820312 863.179688 C 213.269531 863.179688 215.253906 865.167969 215.253906 867.613281 Z M 215.253906 843.886719 C 215.253906 846.335938 213.269531 848.324219 210.820312 848.324219 C 208.371094 848.324219 206.382812 846.335938 206.382812 843.886719 L 206.382812 820.160156 C 206.382812 817.710938 208.371094 815.726562 210.820312 815.726562 C 213.269531 815.726562 215.253906 817.710938 215.253906 820.160156 Z M 215.253906 796.433594 C 215.253906 798.882812 213.269531 800.867188 210.820312 800.867188 C 208.371094 800.867188 206.382812 798.882812 206.382812 796.433594 L 206.382812 772.707031 C 206.382812 770.257812 208.371094 768.273438 210.820312 768.273438 C 213.269531 768.273438 215.253906 770.257812 215.253906 772.707031 Z M 215.253906 748.992188 C 215.253906 751.441406 213.269531 753.429688 210.820312 753.429688 C 208.371094 753.429688 206.382812 751.441406 206.382812 748.992188 L 206.382812 725.265625 C 206.382812 722.816406 208.371094 720.832031 210.820312 720.832031 C 213.269531 720.832031 215.253906 722.816406 215.253906 725.265625 Z M 215.253906 701.539062 C 215.253906 703.988281 213.269531 705.972656 210.820312 705.972656 C 208.371094 705.972656 206.382812 703.988281 206.382812 701.539062 L 206.382812 677.8125 C 206.382812 675.363281 208.371094 673.378906 210.820312 673.378906 C 213.269531 673.378906 215.253906 675.363281 215.253906 677.8125 Z M 215.253906 654.085938 C 215.253906 656.535156 213.269531 658.519531 210.820312 658.519531 C 208.371094 658.519531 206.382812 656.535156 206.382812 654.085938 L 206.382812 630.359375 C 206.382812 627.910156 208.371094 625.921875 210.820312 625.921875 C 213.269531 625.921875 215.253906 627.910156 215.253906 630.359375 Z M 215.253906 606.632812 C 215.253906 609.082031 213.269531 611.066406 210.820312 611.066406 C 208.371094 611.066406 206.382812 609.082031 206.382812 606.632812 L 206.382812 582.90625 C 206.382812 580.457031 208.371094 578.46875 210.820312 578.46875 C 213.269531 578.46875 215.253906 580.457031 215.253906 582.90625 Z M 215.253906 559.179688 C 215.253906 561.625 213.269531 563.613281 210.820312 563.613281 C 208.371094 563.613281 206.382812 561.625 206.382812 559.179688 L 206.382812 535.453125 C 206.382812 533.003906 208.371094 531.015625 210.820312 531.015625 C 213.269531 531.015625 215.253906 533.003906 215.253906 535.453125 Z M 215.253906 511.738281 C 215.253906 514.183594 213.269531 516.171875 210.820312 516.171875 C 208.371094 516.171875 206.382812 514.183594 206.382812 511.738281 L 206.382812 488.011719 C 206.382812 485.5625 208.371094 483.574219 210.820312 483.574219 C 213.269531 483.574219 215.253906 485.5625 215.253906 488.011719 Z M 215.253906 464.285156 C 215.253906 466.730469 213.269531 468.71875 210.820312 468.71875 C 208.371094 468.71875 206.382812 466.730469 206.382812 464.285156 L 206.382812 440.554688 C 206.382812 438.109375 208.371094 436.121094 210.820312 436.121094 C 213.269531 436.121094 215.253906 438.109375 215.253906 440.554688 Z M 215.253906 416.828125 C 215.253906 419.277344 213.269531 421.265625 210.820312 421.265625 C 208.371094 421.265625 206.382812 419.277344 206.382812 416.828125 L 206.382812 393.101562 C 206.382812 390.65625 208.371094 388.667969 210.820312 388.667969 C 213.269531 388.667969 215.253906 390.65625 215.253906 393.101562 Z M 215.253906 369.375 C 215.253906 371.824219 213.269531 373.8125 210.820312 373.8125 C 208.371094 373.8125 206.382812 371.824219 206.382812 369.375 L 206.382812 345.648438 C 206.382812 343.199219 208.371094 341.214844 210.820312 341.214844 C 213.269531 341.214844 215.253906 343.199219 215.253906 345.648438 Z M 215.253906 321.921875 C 215.253906 324.371094 213.269531 326.355469 210.820312 326.355469 C 208.371094 326.355469 206.382812 324.371094 206.382812 321.921875 L 206.382812 298.195312 C 206.382812 295.746094 208.371094 293.761719 210.820312 293.761719 C 213.269531 293.761719 215.253906 295.746094 215.253906 298.195312 Z M 1476.726562 891.339844 C 1476.726562 893.789062 1474.738281 895.777344 1472.292969 895.777344 C 1469.84375 895.777344 1467.855469 893.789062 1467.855469 891.339844 L 1467.855469 867.613281 C 1467.855469 865.167969 1469.84375 863.179688 1472.292969 863.179688 C 1474.738281 863.179688 1476.726562 865.167969 1476.726562 867.613281 Z M 1476.726562 843.886719 C 1476.726562 846.335938 1474.738281 848.324219 1472.292969 848.324219 C 1469.84375 848.324219 1467.855469 846.335938 1467.855469 843.886719 L 1467.855469 820.160156 C 1467.855469 817.710938 1469.84375 815.726562 1472.292969 815.726562 C 1474.738281 815.726562 1476.726562 817.710938 1476.726562 820.160156 Z M 1476.726562 796.433594 C 1476.726562 798.882812 1474.738281 800.867188 1472.292969 800.867188 C 1469.84375 800.867188 1467.855469 798.882812 1467.855469 796.433594 L 1467.855469 772.707031 C 1467.855469 770.257812 1469.84375 768.273438 1472.292969 768.273438 C 1474.738281 768.273438 1476.726562 770.257812 1476.726562 772.707031 Z M 1476.726562 748.992188 C 1476.726562 751.441406 1474.738281 753.429688 1472.292969 753.429688 C 1469.84375 753.429688 1467.855469 751.441406 1467.855469 748.992188 L 1467.855469 725.265625 C 1467.855469 722.816406 1469.84375 720.832031 1472.292969 720.832031 C 1474.738281 720.832031 1476.726562 722.816406 1476.726562 725.265625 Z M 1476.726562 701.539062 C 1476.726562 703.988281 1474.738281 705.972656 1472.292969 705.972656 C 1469.84375 705.972656 1467.855469 703.988281 1467.855469 701.539062 L 1467.855469 677.8125 C 1467.855469 675.363281 1469.84375 673.378906 1472.292969 673.378906 C 1474.738281 673.378906 1476.726562 675.363281 1476.726562 677.8125 Z M 1476.726562 654.085938 C 1476.726562 656.535156 1474.738281 658.519531 1472.292969 658.519531 C 1469.84375 658.519531 1467.855469 656.535156 1467.855469 654.085938 L 1467.855469 630.359375 C 1467.855469 627.910156 1469.84375 625.921875 1472.292969 625.921875 C 1474.738281 625.921875 1476.726562 627.910156 1476.726562 630.359375 Z M 1476.726562 606.632812 C 1476.726562 609.082031 1474.738281 611.066406 1472.292969 611.066406 C 1469.84375 611.066406 1467.855469 609.082031 1467.855469 606.632812 L 1467.855469 582.90625 C 1467.855469 580.457031 1469.84375 578.46875 1472.292969 578.46875 C 1474.738281 578.46875 1476.726562 580.457031 1476.726562 582.90625 Z M 1476.726562 559.179688 C 1476.726562 561.625 1474.738281 563.613281 1472.292969 563.613281 C 1469.84375 563.613281 1467.855469 561.625 1467.855469 559.179688 L 1467.855469 535.453125 C 1467.855469 533.003906 1469.84375 531.015625 1472.292969 531.015625 C 1474.738281 531.015625 1476.726562 533.003906 1476.726562 535.453125 Z M 1476.726562 511.738281 C 1476.726562 514.183594 1474.738281 516.171875 1472.292969 516.171875 C 1469.84375 516.171875 1467.855469 514.183594 1467.855469 511.738281 L 1467.855469 488.011719 C 1467.855469 485.5625 1469.84375 483.574219 1472.292969 483.574219 C 1474.738281 483.574219 1476.726562 485.5625 1476.726562 488.011719 Z M 1476.726562 464.285156 C 1476.726562 466.730469 1474.738281 468.71875 1472.292969 468.71875 C 1469.84375 468.71875 1467.855469 466.730469 1467.855469 464.285156 L 1467.855469 440.554688 C 1467.855469 438.109375 1469.84375 436.121094 1472.292969 436.121094 C 1474.738281 436.121094 1476.726562 438.109375 1476.726562 440.554688 Z M 1476.726562 416.828125 C 1476.726562 419.277344 1474.738281 421.265625 1472.292969 421.265625 C 1469.84375 421.265625 1467.855469 419.277344 1467.855469 416.828125 L 1467.855469 393.101562 C 1467.855469 390.65625 1469.84375 388.667969 1472.292969 388.667969 C 1474.738281 388.667969 1476.726562 390.65625 1476.726562 393.101562 Z M 1476.726562 369.375 C 1476.726562 371.824219 1474.738281 373.8125 1472.292969 373.8125 C 1469.84375 373.8125 1467.855469 371.824219 1467.855469 369.375 L 1467.855469 345.648438 C 1467.855469 343.199219 1469.84375 341.214844 1472.292969 341.214844 C 1474.738281 341.214844 1476.726562 343.199219 1476.726562 345.648438 Z M 1476.726562 321.921875 C 1476.726562 324.371094 1474.738281 326.355469 1472.292969 326.355469 C 1469.84375 326.355469 1467.855469 324.371094 1467.855469 321.921875 L 1467.855469 298.195312 C 1467.855469 295.746094 1469.84375 293.761719 1472.292969 293.761719 C 1474.738281 293.761719 1476.726562 295.746094 1476.726562 298.195312 Z M 1476.726562 321.921875 " fill-opacity="1" fill-rule="nonzero"/></g></svg>